<svg width="37" height="38" viewBox="0 0 37 38" fill="none" xmlns="http://www.w3.org/2000/svg">
<path fill-rule="evenodd" clip-rule="evenodd" d="M25.2117 5.3098L5.17008 25.8931L4.07996 24.7735L24.1216 4.19022L25.2117 5.3098Z" fill="white"/>
<path fill-rule="evenodd" clip-rule="evenodd" d="M21.5469 3.37811C21.2775 3.10145 20.8252 3.10145 20.5558 3.37811L3.28912 21.1114C3.01973 21.3881 3.01973 21.8527 3.28912 22.1294L15.4529 34.6219C15.7223 34.8985 16.1746 34.8985 16.444 34.6219L33.7107 16.8885C33.9752 16.6169 33.9863 16.1648 33.7064 15.8663L21.5469 3.37811ZM19.4657 2.25853C20.3371 1.36353 21.7656 1.36353 22.637 2.25853L34.8081 14.7585C35.6659 15.6634 35.6762 17.1091 34.8008 18.0081L17.5341 35.7414C16.6627 36.6364 15.2342 36.6364 14.3627 35.7414L2.19899 23.2489C1.32755 22.354 1.32755 20.8869 2.19899 19.9919L19.4657 2.25853Z" fill="white"/>
<path fill-rule="evenodd" clip-rule="evenodd" d="M27.5265 9.26588L8.4869 28.9784L7.3924 27.8633L26.432 8.15082L27.5265 9.26588Z" fill="white"/>
<path fill-rule="evenodd" clip-rule="evenodd" d="M19.8159 23.9819C20.1169 24.291 20.1169 24.7923 19.8159 25.1015L15.1909 29.8515C14.8899 30.1606 14.4018 30.1606 14.1008 29.8515C13.7997 29.5423 13.7997 29.041 14.1008 28.7319L18.7258 23.9819C19.0268 23.6727 19.5149 23.6727 19.8159 23.9819Z" fill="white"/>
</svg>
