<svg width="34" height="32" viewBox="0 0 34 32" fill="none" xmlns="http://www.w3.org/2000/svg">
<g clip-path="url(#clip0_1_1118)">
<path fill-rule="evenodd" clip-rule="evenodd" d="M17 1.33333C8.39356 1.33333 1.41667 7.89982 1.41667 16C1.41667 24.1002 8.39356 30.6667 17 30.6667C25.6064 30.6667 32.5833 24.1002 32.5833 16C32.5833 7.89982 25.6064 1.33333 17 1.33333ZM0 16C0 7.16344 7.61116 0 17 0C26.3888 0 34 7.16344 34 16C34 24.8366 26.3888 32 17 32C7.61116 32 0 24.8366 0 16Z" fill="white"/>
<path d="M15.4502 13.3013H18.5442V23.344H15.4502V13.3013ZM16.9972 11.9013C16.4286 11.9013 15.9659 11.7458 15.6089 11.4347C15.2519 11.1235 15.0734 10.7378 15.0734 10.2773C15.0734 9.81688 15.2519 9.4311 15.6089 9.11999C15.9659 8.80888 16.4286 8.65332 16.9972 8.65332C17.5658 8.65332 18.0285 8.80265 18.3855 9.10132C18.7425 9.39999 18.921 9.77332 18.921 10.2213C18.921 10.7067 18.7425 11.1111 18.3855 11.4347C18.0285 11.7458 17.5658 11.9013 16.9972 11.9013Z" fill="white"/>
</g>
<defs>
<clipPath id="clip0_1_1118">
<rect width="34" height="32" fill="white"/>
</clipPath>
</defs>
</svg>
