<svg width="41" height="40" viewBox="0 0 41 40" fill="none" xmlns="http://www.w3.org/2000/svg">
<path fill-rule="evenodd" clip-rule="evenodd" d="M3.41666 7.5C3.41666 7.03976 3.79908 6.66667 4.27082 6.66667H36.7292C37.2009 6.66667 37.5833 7.03976 37.5833 7.5C37.5833 7.96024 37.2009 8.33333 36.7292 8.33333H4.27082C3.79908 8.33333 3.41666 7.96024 3.41666 7.5Z" fill="white"/>
<path fill-rule="evenodd" clip-rule="evenodd" d="M3.41666 20C3.41666 19.5398 3.79908 19.1667 4.27082 19.1667H36.7292C37.2009 19.1667 37.5833 19.5398 37.5833 20C37.5833 20.4602 37.2009 20.8333 36.7292 20.8333H4.27082C3.79908 20.8333 3.41666 20.4602 3.41666 20Z" fill="white"/>
<path fill-rule="evenodd" clip-rule="evenodd" d="M3.41666 32.5C3.41666 32.0398 3.79908 31.6667 4.27082 31.6667H36.7292C37.2009 31.6667 37.5833 32.0398 37.5833 32.5C37.5833 32.9602 37.2009 33.3333 36.7292 33.3333H4.27082C3.79908 33.3333 3.41666 32.9602 3.41666 32.5Z" fill="white"/>
</svg>
