<svg width="35" height="33" viewBox="0 0 35 33" fill="none" xmlns="http://www.w3.org/2000/svg">
<path fill-rule="evenodd" clip-rule="evenodd" d="M20.4424 1.74408C20.5484 1.37777 20.9492 1.1618 21.3377 1.2617C23.0178 1.69372 24.6833 2.40941 26.1877 3.26045C26.4073 3.3847 26.5417 3.60848 26.5417 3.84998C26.5417 4.12485 26.4932 4.35321 26.4576 4.52077L26.4546 4.53481C26.4175 4.70981 26.3959 4.8201 26.3959 4.94998C26.3959 6.63278 27.8194 7.97498 29.6042 7.97498C29.8305 7.97498 30.0148 7.97445 30.1762 7.96061C30.3424 7.94637 30.4189 7.92228 30.4448 7.91006C30.7681 7.75766 31.161 7.85154 31.3682 8.13072C32.4524 9.59102 33.0667 11.0487 33.5199 12.7582C33.6105 13.0998 33.4127 13.4508 33.0617 13.5711C31.7086 14.035 30.7709 15.1746 30.7709 16.5C30.7709 17.8017 31.6789 18.9422 33.3186 19.4179C33.6948 19.527 33.9112 19.8979 33.8077 20.2559C33.3495 21.8399 32.5904 23.4103 31.6878 24.8287C31.556 25.0358 31.3187 25.1625 31.0625 25.1625C30.771 25.1625 30.5288 25.1167 30.3511 25.0832L30.3362 25.0804C30.1506 25.0454 30.0336 25.025 29.8959 25.025C28.1111 25.025 26.6875 26.3672 26.6875 28.05C26.6875 28.2634 26.6881 28.4371 26.7028 28.5893C26.7179 28.746 26.7434 28.8181 26.7564 28.8425C26.918 29.1473 26.8185 29.5178 26.5224 29.7132C24.9735 30.7354 23.4275 31.3146 21.6144 31.742C21.2521 31.8274 20.8799 31.6408 20.7523 31.3099C20.2602 30.0342 19.0516 29.15 17.6459 29.15C16.1976 29.15 14.9017 30.0665 14.5577 31.2559C14.4517 31.6222 14.0509 31.8382 13.6623 31.7383C11.9823 31.3062 10.3167 30.5905 8.81238 29.7395C8.59276 29.6153 8.45837 29.3915 8.45837 29.15C8.45837 28.8751 8.50688 28.6468 8.54247 28.4792L8.54545 28.4651C8.58257 28.2901 8.6042 28.1799 8.6042 28.05C8.6042 26.3672 7.18066 25.025 5.39587 25.025C5.16954 25.025 4.9853 25.0255 4.82386 25.0393C4.65768 25.0536 4.58121 25.0777 4.5553 25.0899C4.23202 25.2423 3.83912 25.1484 3.63185 24.8692C2.54768 23.4089 1.93342 21.9512 1.48014 20.2417C1.38956 19.9001 1.58737 19.5492 1.93835 19.4289C3.29143 18.965 4.2292 17.8254 4.2292 16.5C4.2292 15.1791 3.30452 14.0688 1.86486 13.7295C1.67463 13.6846 1.51158 13.5694 1.41249 13.4099C1.31341 13.2504 1.28664 13.0599 1.33823 12.8816C1.79643 11.2975 2.5555 9.72716 3.45812 8.30876C3.58989 8.10168 3.82724 7.97498 4.08337 7.97498C4.3749 7.97498 4.6171 8.02071 4.79482 8.05427L4.80971 8.05708C4.99531 8.09208 5.11229 8.11248 5.25004 8.11248C7.03483 8.11248 8.45837 6.77028 8.45837 5.08748C8.45837 4.87408 8.45781 4.70037 8.44314 4.54816C8.42803 4.39147 8.40247 4.31937 8.38952 4.29494C8.22788 3.99013 8.32745 3.61968 8.62355 3.42426C10.1805 2.39665 11.8762 1.82099 13.5165 1.3992C13.8825 1.30508 14.264 1.49134 14.3936 1.82753C14.8817 3.09293 15.9377 3.84998 17.3542 3.84998C18.8025 3.84998 20.0984 2.93349 20.4424 1.74408ZM21.5883 2.76617C20.8387 4.24196 19.1497 5.22498 17.3542 5.22498C15.5139 5.22498 14.0749 4.31371 13.2965 2.88836C12.1024 3.2258 10.9486 3.65416 9.87947 4.28814C9.88611 4.33489 9.89129 4.38024 9.89548 4.42367C9.91673 4.6441 9.91672 4.87679 9.9167 5.07291V5.08748C9.9167 7.52967 7.84024 9.48748 5.25004 9.48748C4.95851 9.48748 4.71631 9.44174 4.53859 9.40819L4.5237 9.40538C4.50624 9.40208 4.48939 9.39892 4.47307 9.39589C3.84927 10.4278 3.31891 11.5237 2.94151 12.623C4.60135 13.2859 5.68754 14.7621 5.68754 16.5C5.68754 18.2494 4.59218 19.7129 3.05223 20.4663C3.40787 21.6521 3.86255 22.6787 4.54572 23.6854C4.59614 23.679 4.64505 23.674 4.69184 23.67C4.92561 23.65 5.1724 23.65 5.3804 23.65H5.39587C7.98608 23.65 10.0625 25.6078 10.0625 28.05C10.0625 28.3248 10.014 28.5532 9.97844 28.7208L9.97546 28.7348C9.97197 28.7513 9.96862 28.7672 9.9654 28.7825C11.0672 29.3747 12.2379 29.8775 13.4118 30.2338C14.1614 28.758 15.8504 27.775 17.6459 27.775C19.5013 27.775 21.0535 28.8077 21.8526 30.2597C23.1103 29.9244 24.199 29.4957 25.2668 28.8516C25.26 28.804 25.2547 28.7579 25.2504 28.7138C25.2292 28.4934 25.2292 28.2607 25.2292 28.0645V28.05C25.2292 25.6078 27.3057 23.65 29.8959 23.65C30.1874 23.65 30.4296 23.6957 30.6073 23.7293L30.6222 23.7321C30.6397 23.7354 30.6565 23.7385 30.6728 23.7416C31.3007 22.703 31.8339 21.5996 32.2117 20.4931C30.4435 19.7516 29.3125 18.28 29.3125 16.5C29.3125 14.7506 30.4079 13.2871 31.9478 12.5337C31.5922 11.3478 31.1375 10.3213 30.4544 9.31457C30.4039 9.32097 30.355 9.32596 30.3082 9.32997C30.0745 9.35001 29.8277 9.34999 29.6197 9.34998H29.6042C27.014 9.34998 24.9375 7.39217 24.9375 4.94998C24.9375 4.67511 24.986 4.44675 25.0216 4.27918L25.0246 4.26515C25.0281 4.24869 25.0315 4.2328 25.0347 4.21741C23.9328 3.62527 22.7622 3.12244 21.5883 2.76617Z" fill="white"/>
<path fill-rule="evenodd" clip-rule="evenodd" d="M17.5 11C14.2783 11 11.6667 13.4624 11.6667 16.5C11.6667 19.5376 14.2783 22 17.5 22C20.7217 22 23.3333 19.5376 23.3333 16.5C23.3333 13.4624 20.7217 11 17.5 11ZM10.2083 16.5C10.2083 12.703 13.4729 9.625 17.5 9.625C21.5271 9.625 24.7917 12.703 24.7917 16.5C24.7917 20.297 21.5271 23.375 17.5 23.375C13.4729 23.375 10.2083 20.297 10.2083 16.5Z" fill="white"/>
</svg>
